<mxfile host="app.diagrams.net" modified="2023-12-31T08:47:56.955Z" agent="Mozilla/5.0 (Windows NT 10.0; Win64; x64) AppleWebKit/537.36 (KHTML, like Gecko) Chrome/120.0.0.0 Safari/537.36" etag="Vm7mZrqo93vbr__eUewK" version="22.1.16" type="github">
  <diagram name="第 1 页" id="zp1J_9PAWuD9TInZalSS">
    <mxGraphModel dx="1050" dy="522" grid="1" gridSize="10" guides="1" tooltips="1" connect="1" arrows="1" fold="1" page="1" pageScale="1" pageWidth="827" pageHeight="1169" math="0" shadow="0">
      <root>
        <mxCell id="0" />
        <mxCell id="1" parent="0" />
        <mxCell id="sT8FcXk763uW2nM7d11g-11" value="" style="group" vertex="1" connectable="0" parent="1">
          <mxGeometry x="120" y="160" width="40" height="160" as="geometry" />
        </mxCell>
        <mxCell id="sT8FcXk763uW2nM7d11g-9" value="" style="rounded=1;whiteSpace=wrap;html=1;direction=south;" vertex="1" parent="sT8FcXk763uW2nM7d11g-11">
          <mxGeometry width="40" height="160" as="geometry" />
        </mxCell>
        <mxCell id="sT8FcXk763uW2nM7d11g-10" value="" style="endArrow=none;html=1;rounded=0;" edge="1" parent="sT8FcXk763uW2nM7d11g-11">
          <mxGeometry width="50" height="50" relative="1" as="geometry">
            <mxPoint y="49.99666666666667" as="sourcePoint" />
            <mxPoint x="40" y="50" as="targetPoint" />
          </mxGeometry>
        </mxCell>
        <mxCell id="sT8FcXk763uW2nM7d11g-17" value="P0" style="rounded=1;whiteSpace=wrap;html=1;direction=south;" vertex="1" parent="sT8FcXk763uW2nM7d11g-11">
          <mxGeometry width="40" height="50" as="geometry" />
        </mxCell>
        <mxCell id="sT8FcXk763uW2nM7d11g-18" value="用戶&lt;br&gt;登錄" style="rounded=1;whiteSpace=wrap;html=1;direction=south;" vertex="1" parent="sT8FcXk763uW2nM7d11g-11">
          <mxGeometry y="50" width="40" height="110" as="geometry" />
        </mxCell>
        <mxCell id="sT8FcXk763uW2nM7d11g-12" value="管理員" style="rounded=0;whiteSpace=wrap;html=1;direction=south;" vertex="1" parent="1">
          <mxGeometry x="40" y="160" width="40" height="160" as="geometry" />
        </mxCell>
        <mxCell id="sT8FcXk763uW2nM7d11g-13" value="" style="endArrow=none;html=1;rounded=0;" edge="1" parent="1">
          <mxGeometry width="50" height="50" relative="1" as="geometry">
            <mxPoint x="30" y="150" as="sourcePoint" />
            <mxPoint x="30" y="190" as="targetPoint" />
          </mxGeometry>
        </mxCell>
        <mxCell id="sT8FcXk763uW2nM7d11g-14" value="" style="endArrow=none;html=1;rounded=0;" edge="1" parent="1">
          <mxGeometry width="50" height="50" relative="1" as="geometry">
            <mxPoint x="30" y="149.99666666666667" as="sourcePoint" />
            <mxPoint x="70" y="150" as="targetPoint" />
          </mxGeometry>
        </mxCell>
        <mxCell id="sT8FcXk763uW2nM7d11g-15" value="" style="endArrow=classic;html=1;rounded=0;" edge="1" parent="1">
          <mxGeometry width="50" height="50" relative="1" as="geometry">
            <mxPoint x="80" y="239.5" as="sourcePoint" />
            <mxPoint x="120" y="239.5" as="targetPoint" />
          </mxGeometry>
        </mxCell>
        <mxCell id="sT8FcXk763uW2nM7d11g-16" value="&lt;font style=&quot;font-size: 12px;&quot;&gt;登錄&lt;br style=&quot;&quot;&gt;信息&lt;/font&gt;" style="text;html=1;align=center;verticalAlign=middle;resizable=0;points=[];autosize=1;strokeColor=none;fillColor=none;fontSize=10;" vertex="1" parent="1">
          <mxGeometry x="75" y="200" width="50" height="40" as="geometry" />
        </mxCell>
        <mxCell id="sT8FcXk763uW2nM7d11g-34" value="" style="group" vertex="1" connectable="0" parent="1">
          <mxGeometry x="690" y="160" width="40" height="160" as="geometry" />
        </mxCell>
        <mxCell id="sT8FcXk763uW2nM7d11g-35" value="" style="rounded=1;whiteSpace=wrap;html=1;direction=south;" vertex="1" parent="sT8FcXk763uW2nM7d11g-34">
          <mxGeometry width="40" height="160" as="geometry" />
        </mxCell>
        <mxCell id="sT8FcXk763uW2nM7d11g-36" value="" style="endArrow=none;html=1;rounded=0;" edge="1" parent="sT8FcXk763uW2nM7d11g-34">
          <mxGeometry width="50" height="50" relative="1" as="geometry">
            <mxPoint y="49.99666666666667" as="sourcePoint" />
            <mxPoint x="40" y="50" as="targetPoint" />
          </mxGeometry>
        </mxCell>
        <mxCell id="sT8FcXk763uW2nM7d11g-37" value="P0" style="rounded=1;whiteSpace=wrap;html=1;direction=south;" vertex="1" parent="sT8FcXk763uW2nM7d11g-34">
          <mxGeometry width="40" height="50" as="geometry" />
        </mxCell>
        <mxCell id="sT8FcXk763uW2nM7d11g-38" value="用戶&lt;br&gt;登錄" style="rounded=1;whiteSpace=wrap;html=1;direction=south;" vertex="1" parent="sT8FcXk763uW2nM7d11g-34">
          <mxGeometry y="50" width="40" height="110" as="geometry" />
        </mxCell>
        <mxCell id="sT8FcXk763uW2nM7d11g-39" value="用戶" style="rounded=0;whiteSpace=wrap;html=1;direction=south;" vertex="1" parent="1">
          <mxGeometry x="770" y="160" width="40" height="160" as="geometry" />
        </mxCell>
        <mxCell id="sT8FcXk763uW2nM7d11g-40" value="" style="endArrow=none;html=1;rounded=0;" edge="1" parent="1">
          <mxGeometry width="50" height="50" relative="1" as="geometry">
            <mxPoint x="759.5" y="150" as="sourcePoint" />
            <mxPoint x="759.5" y="190" as="targetPoint" />
          </mxGeometry>
        </mxCell>
        <mxCell id="sT8FcXk763uW2nM7d11g-41" value="" style="endArrow=none;html=1;rounded=0;" edge="1" parent="1">
          <mxGeometry width="50" height="50" relative="1" as="geometry">
            <mxPoint x="760" y="149.99666666666667" as="sourcePoint" />
            <mxPoint x="800" y="150" as="targetPoint" />
          </mxGeometry>
        </mxCell>
        <mxCell id="sT8FcXk763uW2nM7d11g-42" value="" style="endArrow=classic;html=1;rounded=0;" edge="1" parent="1">
          <mxGeometry width="50" height="50" relative="1" as="geometry">
            <mxPoint x="770" y="240" as="sourcePoint" />
            <mxPoint x="730" y="240" as="targetPoint" />
          </mxGeometry>
        </mxCell>
        <mxCell id="sT8FcXk763uW2nM7d11g-43" value="&lt;font style=&quot;font-size: 12px;&quot;&gt;登錄&lt;br style=&quot;&quot;&gt;信息&lt;/font&gt;" style="text;html=1;align=center;verticalAlign=middle;resizable=0;points=[];autosize=1;strokeColor=none;fillColor=none;fontSize=12;" vertex="1" parent="1">
          <mxGeometry x="725" y="200" width="50" height="40" as="geometry" />
        </mxCell>
        <mxCell id="sT8FcXk763uW2nM7d11g-82" value="" style="group" vertex="1" connectable="0" parent="1">
          <mxGeometry x="200" y="10" width="80" height="100" as="geometry" />
        </mxCell>
        <mxCell id="sT8FcXk763uW2nM7d11g-66" value="&lt;br&gt;&lt;br&gt;留言管理" style="rounded=1;whiteSpace=wrap;html=1;direction=south;" vertex="1" parent="sT8FcXk763uW2nM7d11g-82">
          <mxGeometry width="80" height="100" as="geometry" />
        </mxCell>
        <mxCell id="sT8FcXk763uW2nM7d11g-68" value="" style="endArrow=none;html=1;rounded=0;" edge="1" parent="sT8FcXk763uW2nM7d11g-82">
          <mxGeometry width="50" height="50" relative="1" as="geometry">
            <mxPoint y="30" as="sourcePoint" />
            <mxPoint x="80" y="30" as="targetPoint" />
          </mxGeometry>
        </mxCell>
        <mxCell id="sT8FcXk763uW2nM7d11g-69" value="P1" style="text;html=1;align=center;verticalAlign=middle;resizable=0;points=[];autosize=1;strokeColor=none;fillColor=none;" vertex="1" parent="sT8FcXk763uW2nM7d11g-82">
          <mxGeometry x="20" width="40" height="30" as="geometry" />
        </mxCell>
        <mxCell id="sT8FcXk763uW2nM7d11g-83" value="" style="group" vertex="1" connectable="0" parent="1">
          <mxGeometry x="200" y="120" width="80" height="100" as="geometry" />
        </mxCell>
        <mxCell id="sT8FcXk763uW2nM7d11g-84" value="&lt;br&gt;&lt;br&gt;單次推薦" style="rounded=1;whiteSpace=wrap;html=1;direction=south;" vertex="1" parent="sT8FcXk763uW2nM7d11g-83">
          <mxGeometry width="80" height="100" as="geometry" />
        </mxCell>
        <mxCell id="sT8FcXk763uW2nM7d11g-85" value="" style="endArrow=none;html=1;rounded=0;" edge="1" parent="sT8FcXk763uW2nM7d11g-83">
          <mxGeometry width="50" height="50" relative="1" as="geometry">
            <mxPoint y="30" as="sourcePoint" />
            <mxPoint x="80" y="30" as="targetPoint" />
          </mxGeometry>
        </mxCell>
        <mxCell id="sT8FcXk763uW2nM7d11g-86" value="P3" style="text;html=1;align=center;verticalAlign=middle;resizable=0;points=[];autosize=1;strokeColor=none;fillColor=none;" vertex="1" parent="sT8FcXk763uW2nM7d11g-83">
          <mxGeometry x="20" width="40" height="30" as="geometry" />
        </mxCell>
        <mxCell id="sT8FcXk763uW2nM7d11g-87" value="" style="group" vertex="1" connectable="0" parent="1">
          <mxGeometry x="200" y="230" width="80" height="100" as="geometry" />
        </mxCell>
        <mxCell id="sT8FcXk763uW2nM7d11g-88" value="&lt;br&gt;&lt;br&gt;訂票管理" style="rounded=1;whiteSpace=wrap;html=1;direction=south;" vertex="1" parent="sT8FcXk763uW2nM7d11g-87">
          <mxGeometry width="80" height="100" as="geometry" />
        </mxCell>
        <mxCell id="sT8FcXk763uW2nM7d11g-89" value="" style="endArrow=none;html=1;rounded=0;" edge="1" parent="sT8FcXk763uW2nM7d11g-87">
          <mxGeometry width="50" height="50" relative="1" as="geometry">
            <mxPoint y="30" as="sourcePoint" />
            <mxPoint x="80" y="30" as="targetPoint" />
          </mxGeometry>
        </mxCell>
        <mxCell id="sT8FcXk763uW2nM7d11g-90" value="P5" style="text;html=1;align=center;verticalAlign=middle;resizable=0;points=[];autosize=1;strokeColor=none;fillColor=none;" vertex="1" parent="sT8FcXk763uW2nM7d11g-87">
          <mxGeometry x="20" width="40" height="30" as="geometry" />
        </mxCell>
        <mxCell id="sT8FcXk763uW2nM7d11g-91" value="" style="group" vertex="1" connectable="0" parent="1">
          <mxGeometry x="200" y="340" width="80" height="100" as="geometry" />
        </mxCell>
        <mxCell id="sT8FcXk763uW2nM7d11g-92" value="&lt;br&gt;&lt;br&gt;改簽管理" style="rounded=1;whiteSpace=wrap;html=1;direction=south;" vertex="1" parent="sT8FcXk763uW2nM7d11g-91">
          <mxGeometry width="80" height="100" as="geometry" />
        </mxCell>
        <mxCell id="sT8FcXk763uW2nM7d11g-93" value="" style="endArrow=none;html=1;rounded=0;" edge="1" parent="sT8FcXk763uW2nM7d11g-91">
          <mxGeometry width="50" height="50" relative="1" as="geometry">
            <mxPoint y="30" as="sourcePoint" />
            <mxPoint x="80" y="30" as="targetPoint" />
          </mxGeometry>
        </mxCell>
        <mxCell id="sT8FcXk763uW2nM7d11g-94" value="P7" style="text;html=1;align=center;verticalAlign=middle;resizable=0;points=[];autosize=1;strokeColor=none;fillColor=none;" vertex="1" parent="sT8FcXk763uW2nM7d11g-91">
          <mxGeometry x="20" width="40" height="30" as="geometry" />
        </mxCell>
        <mxCell id="sT8FcXk763uW2nM7d11g-95" value="" style="group" vertex="1" connectable="0" parent="1">
          <mxGeometry x="200" y="450" width="80" height="100" as="geometry" />
        </mxCell>
        <mxCell id="sT8FcXk763uW2nM7d11g-96" value="&lt;br&gt;&lt;br&gt;退票管理" style="rounded=1;whiteSpace=wrap;html=1;direction=south;" vertex="1" parent="sT8FcXk763uW2nM7d11g-95">
          <mxGeometry width="80" height="100" as="geometry" />
        </mxCell>
        <mxCell id="sT8FcXk763uW2nM7d11g-97" value="" style="endArrow=none;html=1;rounded=0;" edge="1" parent="sT8FcXk763uW2nM7d11g-95">
          <mxGeometry width="50" height="50" relative="1" as="geometry">
            <mxPoint y="30" as="sourcePoint" />
            <mxPoint x="80" y="30" as="targetPoint" />
          </mxGeometry>
        </mxCell>
        <mxCell id="sT8FcXk763uW2nM7d11g-98" value="P9" style="text;html=1;align=center;verticalAlign=middle;resizable=0;points=[];autosize=1;strokeColor=none;fillColor=none;" vertex="1" parent="sT8FcXk763uW2nM7d11g-95">
          <mxGeometry x="20" width="40" height="30" as="geometry" />
        </mxCell>
        <mxCell id="sT8FcXk763uW2nM7d11g-99" value="" style="endArrow=classic;html=1;rounded=0;" edge="1" parent="1">
          <mxGeometry width="50" height="50" relative="1" as="geometry">
            <mxPoint x="180" y="70" as="sourcePoint" />
            <mxPoint x="200" y="70" as="targetPoint" />
          </mxGeometry>
        </mxCell>
        <mxCell id="sT8FcXk763uW2nM7d11g-112" value="" style="endArrow=classic;html=1;rounded=0;" edge="1" parent="1">
          <mxGeometry width="50" height="50" relative="1" as="geometry">
            <mxPoint x="180" y="180" as="sourcePoint" />
            <mxPoint x="200" y="180" as="targetPoint" />
          </mxGeometry>
        </mxCell>
        <mxCell id="sT8FcXk763uW2nM7d11g-113" value="" style="endArrow=classic;html=1;rounded=0;" edge="1" parent="1">
          <mxGeometry width="50" height="50" relative="1" as="geometry">
            <mxPoint x="180" y="290" as="sourcePoint" />
            <mxPoint x="200" y="290" as="targetPoint" />
          </mxGeometry>
        </mxCell>
        <mxCell id="sT8FcXk763uW2nM7d11g-114" value="" style="endArrow=classic;html=1;rounded=0;" edge="1" parent="1">
          <mxGeometry width="50" height="50" relative="1" as="geometry">
            <mxPoint x="180" y="400" as="sourcePoint" />
            <mxPoint x="200" y="400" as="targetPoint" />
          </mxGeometry>
        </mxCell>
        <mxCell id="sT8FcXk763uW2nM7d11g-115" value="" style="endArrow=classic;html=1;rounded=0;" edge="1" parent="1">
          <mxGeometry width="50" height="50" relative="1" as="geometry">
            <mxPoint x="180" y="510" as="sourcePoint" />
            <mxPoint x="200" y="510" as="targetPoint" />
          </mxGeometry>
        </mxCell>
        <mxCell id="sT8FcXk763uW2nM7d11g-116" value="" style="endArrow=none;html=1;rounded=0;" edge="1" parent="1">
          <mxGeometry width="50" height="50" relative="1" as="geometry">
            <mxPoint x="180" y="510" as="sourcePoint" />
            <mxPoint x="180" y="70" as="targetPoint" />
          </mxGeometry>
        </mxCell>
        <mxCell id="sT8FcXk763uW2nM7d11g-117" value="" style="endArrow=none;html=1;rounded=0;" edge="1" parent="1">
          <mxGeometry width="50" height="50" relative="1" as="geometry">
            <mxPoint x="160" y="240" as="sourcePoint" />
            <mxPoint x="180" y="240" as="targetPoint" />
          </mxGeometry>
        </mxCell>
        <mxCell id="sT8FcXk763uW2nM7d11g-123" value="" style="group" vertex="1" connectable="0" parent="1">
          <mxGeometry x="570" y="10" width="80" height="100" as="geometry" />
        </mxCell>
        <mxCell id="sT8FcXk763uW2nM7d11g-124" value="&lt;br&gt;&lt;br&gt;在線留言" style="rounded=1;whiteSpace=wrap;html=1;direction=south;" vertex="1" parent="sT8FcXk763uW2nM7d11g-123">
          <mxGeometry width="80" height="100" as="geometry" />
        </mxCell>
        <mxCell id="sT8FcXk763uW2nM7d11g-125" value="" style="endArrow=none;html=1;rounded=0;" edge="1" parent="sT8FcXk763uW2nM7d11g-123">
          <mxGeometry width="50" height="50" relative="1" as="geometry">
            <mxPoint y="30" as="sourcePoint" />
            <mxPoint x="80" y="30" as="targetPoint" />
          </mxGeometry>
        </mxCell>
        <mxCell id="sT8FcXk763uW2nM7d11g-126" value="P2" style="text;html=1;align=center;verticalAlign=middle;resizable=0;points=[];autosize=1;strokeColor=none;fillColor=none;" vertex="1" parent="sT8FcXk763uW2nM7d11g-123">
          <mxGeometry x="20" width="40" height="30" as="geometry" />
        </mxCell>
        <mxCell id="sT8FcXk763uW2nM7d11g-127" value="" style="group" vertex="1" connectable="0" parent="1">
          <mxGeometry x="570" y="120" width="80" height="100" as="geometry" />
        </mxCell>
        <mxCell id="sT8FcXk763uW2nM7d11g-128" value="&lt;br&gt;&lt;br&gt;單次諮詢" style="rounded=1;whiteSpace=wrap;html=1;direction=south;" vertex="1" parent="sT8FcXk763uW2nM7d11g-127">
          <mxGeometry width="80" height="100" as="geometry" />
        </mxCell>
        <mxCell id="sT8FcXk763uW2nM7d11g-129" value="" style="endArrow=none;html=1;rounded=0;" edge="1" parent="sT8FcXk763uW2nM7d11g-127">
          <mxGeometry width="50" height="50" relative="1" as="geometry">
            <mxPoint y="30" as="sourcePoint" />
            <mxPoint x="80" y="30" as="targetPoint" />
          </mxGeometry>
        </mxCell>
        <mxCell id="sT8FcXk763uW2nM7d11g-130" value="P4" style="text;html=1;align=center;verticalAlign=middle;resizable=0;points=[];autosize=1;strokeColor=none;fillColor=none;" vertex="1" parent="sT8FcXk763uW2nM7d11g-127">
          <mxGeometry x="20" width="40" height="30" as="geometry" />
        </mxCell>
        <mxCell id="sT8FcXk763uW2nM7d11g-131" value="" style="group" vertex="1" connectable="0" parent="1">
          <mxGeometry x="570" y="230" width="80" height="100" as="geometry" />
        </mxCell>
        <mxCell id="sT8FcXk763uW2nM7d11g-132" value="&lt;br&gt;&lt;br&gt;車票預訂" style="rounded=1;whiteSpace=wrap;html=1;direction=south;" vertex="1" parent="sT8FcXk763uW2nM7d11g-131">
          <mxGeometry width="80" height="100" as="geometry" />
        </mxCell>
        <mxCell id="sT8FcXk763uW2nM7d11g-133" value="" style="endArrow=none;html=1;rounded=0;" edge="1" parent="sT8FcXk763uW2nM7d11g-131">
          <mxGeometry width="50" height="50" relative="1" as="geometry">
            <mxPoint y="30" as="sourcePoint" />
            <mxPoint x="80" y="30" as="targetPoint" />
          </mxGeometry>
        </mxCell>
        <mxCell id="sT8FcXk763uW2nM7d11g-134" value="P6" style="text;html=1;align=center;verticalAlign=middle;resizable=0;points=[];autosize=1;strokeColor=none;fillColor=none;" vertex="1" parent="sT8FcXk763uW2nM7d11g-131">
          <mxGeometry x="20" width="40" height="30" as="geometry" />
        </mxCell>
        <mxCell id="sT8FcXk763uW2nM7d11g-135" value="" style="group" vertex="1" connectable="0" parent="1">
          <mxGeometry x="570" y="340" width="80" height="100" as="geometry" />
        </mxCell>
        <mxCell id="sT8FcXk763uW2nM7d11g-136" value="&lt;br&gt;&lt;br&gt;改簽申請" style="rounded=1;whiteSpace=wrap;html=1;direction=south;" vertex="1" parent="sT8FcXk763uW2nM7d11g-135">
          <mxGeometry width="80" height="100" as="geometry" />
        </mxCell>
        <mxCell id="sT8FcXk763uW2nM7d11g-137" value="" style="endArrow=none;html=1;rounded=0;" edge="1" parent="sT8FcXk763uW2nM7d11g-135">
          <mxGeometry width="50" height="50" relative="1" as="geometry">
            <mxPoint y="30" as="sourcePoint" />
            <mxPoint x="80" y="30" as="targetPoint" />
          </mxGeometry>
        </mxCell>
        <mxCell id="sT8FcXk763uW2nM7d11g-138" value="P8" style="text;html=1;align=center;verticalAlign=middle;resizable=0;points=[];autosize=1;strokeColor=none;fillColor=none;" vertex="1" parent="sT8FcXk763uW2nM7d11g-135">
          <mxGeometry x="20" width="40" height="30" as="geometry" />
        </mxCell>
        <mxCell id="sT8FcXk763uW2nM7d11g-139" value="" style="group" vertex="1" connectable="0" parent="1">
          <mxGeometry x="570" y="450" width="80" height="100" as="geometry" />
        </mxCell>
        <mxCell id="sT8FcXk763uW2nM7d11g-140" value="&lt;br&gt;&lt;br&gt;退票申請" style="rounded=1;whiteSpace=wrap;html=1;direction=south;" vertex="1" parent="sT8FcXk763uW2nM7d11g-139">
          <mxGeometry width="80" height="100" as="geometry" />
        </mxCell>
        <mxCell id="sT8FcXk763uW2nM7d11g-141" value="" style="endArrow=none;html=1;rounded=0;" edge="1" parent="sT8FcXk763uW2nM7d11g-139">
          <mxGeometry width="50" height="50" relative="1" as="geometry">
            <mxPoint y="30" as="sourcePoint" />
            <mxPoint x="80" y="30" as="targetPoint" />
          </mxGeometry>
        </mxCell>
        <mxCell id="sT8FcXk763uW2nM7d11g-142" value="P10" style="text;html=1;align=center;verticalAlign=middle;resizable=0;points=[];autosize=1;strokeColor=none;fillColor=none;" vertex="1" parent="sT8FcXk763uW2nM7d11g-139">
          <mxGeometry x="20" width="40" height="30" as="geometry" />
        </mxCell>
        <mxCell id="sT8FcXk763uW2nM7d11g-143" value="" style="endArrow=classic;html=1;rounded=0;" edge="1" parent="1">
          <mxGeometry width="50" height="50" relative="1" as="geometry">
            <mxPoint x="670" y="70" as="sourcePoint" />
            <mxPoint x="650" y="70" as="targetPoint" />
          </mxGeometry>
        </mxCell>
        <mxCell id="sT8FcXk763uW2nM7d11g-144" value="" style="endArrow=classic;html=1;rounded=0;" edge="1" parent="1">
          <mxGeometry width="50" height="50" relative="1" as="geometry">
            <mxPoint x="670" y="180" as="sourcePoint" />
            <mxPoint x="650" y="180" as="targetPoint" />
          </mxGeometry>
        </mxCell>
        <mxCell id="sT8FcXk763uW2nM7d11g-145" value="" style="endArrow=classic;html=1;rounded=0;" edge="1" parent="1">
          <mxGeometry width="50" height="50" relative="1" as="geometry">
            <mxPoint x="670" y="290" as="sourcePoint" />
            <mxPoint x="650" y="290" as="targetPoint" />
          </mxGeometry>
        </mxCell>
        <mxCell id="sT8FcXk763uW2nM7d11g-146" value="" style="endArrow=classic;html=1;rounded=0;" edge="1" parent="1">
          <mxGeometry width="50" height="50" relative="1" as="geometry">
            <mxPoint x="670" y="400" as="sourcePoint" />
            <mxPoint x="650" y="400" as="targetPoint" />
          </mxGeometry>
        </mxCell>
        <mxCell id="sT8FcXk763uW2nM7d11g-147" value="" style="endArrow=classic;html=1;rounded=0;" edge="1" parent="1">
          <mxGeometry width="50" height="50" relative="1" as="geometry">
            <mxPoint x="670" y="510" as="sourcePoint" />
            <mxPoint x="650" y="510" as="targetPoint" />
          </mxGeometry>
        </mxCell>
        <mxCell id="sT8FcXk763uW2nM7d11g-148" value="" style="endArrow=none;html=1;rounded=0;" edge="1" parent="1">
          <mxGeometry width="50" height="50" relative="1" as="geometry">
            <mxPoint x="670" y="510" as="sourcePoint" />
            <mxPoint x="670" y="70" as="targetPoint" />
          </mxGeometry>
        </mxCell>
        <mxCell id="sT8FcXk763uW2nM7d11g-149" value="" style="endArrow=none;html=1;rounded=0;" edge="1" parent="1">
          <mxGeometry width="50" height="50" relative="1" as="geometry">
            <mxPoint x="670" y="240" as="sourcePoint" />
            <mxPoint x="690" y="240" as="targetPoint" />
          </mxGeometry>
        </mxCell>
        <mxCell id="sT8FcXk763uW2nM7d11g-154" value="" style="group" vertex="1" connectable="0" parent="1">
          <mxGeometry x="380" y="60" width="120" height="30" as="geometry" />
        </mxCell>
        <mxCell id="sT8FcXk763uW2nM7d11g-152" value="D1留言表" style="rounded=0;whiteSpace=wrap;html=1;" vertex="1" parent="sT8FcXk763uW2nM7d11g-154">
          <mxGeometry width="120" height="30" as="geometry" />
        </mxCell>
        <mxCell id="sT8FcXk763uW2nM7d11g-153" value="" style="endArrow=none;html=1;rounded=0;" edge="1" parent="sT8FcXk763uW2nM7d11g-154">
          <mxGeometry width="50" height="50" relative="1" as="geometry">
            <mxPoint x="10" y="30" as="sourcePoint" />
            <mxPoint x="10" as="targetPoint" />
          </mxGeometry>
        </mxCell>
        <mxCell id="sT8FcXk763uW2nM7d11g-155" value="" style="group" vertex="1" connectable="0" parent="1">
          <mxGeometry x="300" y="200" width="80" height="70" as="geometry" />
        </mxCell>
        <mxCell id="sT8FcXk763uW2nM7d11g-156" value="&lt;br&gt;&lt;br&gt;信息匹配" style="rounded=1;whiteSpace=wrap;html=1;direction=south;" vertex="1" parent="sT8FcXk763uW2nM7d11g-155">
          <mxGeometry width="80" height="70" as="geometry" />
        </mxCell>
        <mxCell id="sT8FcXk763uW2nM7d11g-157" value="" style="endArrow=none;html=1;rounded=0;" edge="1" parent="sT8FcXk763uW2nM7d11g-155">
          <mxGeometry width="50" height="50" relative="1" as="geometry">
            <mxPoint y="21" as="sourcePoint" />
            <mxPoint x="80" y="21" as="targetPoint" />
          </mxGeometry>
        </mxCell>
        <mxCell id="sT8FcXk763uW2nM7d11g-158" value="P4" style="text;html=1;align=center;verticalAlign=middle;resizable=0;points=[];autosize=1;strokeColor=none;fillColor=none;" vertex="1" parent="sT8FcXk763uW2nM7d11g-155">
          <mxGeometry x="20" width="40" height="30" as="geometry" />
        </mxCell>
        <mxCell id="sT8FcXk763uW2nM7d11g-173" value="" style="endArrow=classic;startArrow=classic;html=1;rounded=0;" edge="1" parent="1">
          <mxGeometry width="50" height="50" relative="1" as="geometry">
            <mxPoint x="500" y="70" as="sourcePoint" />
            <mxPoint x="570" y="70" as="targetPoint" />
          </mxGeometry>
        </mxCell>
        <mxCell id="sT8FcXk763uW2nM7d11g-174" value="" style="endArrow=classic;startArrow=classic;html=1;rounded=0;" edge="1" parent="1">
          <mxGeometry width="50" height="50" relative="1" as="geometry">
            <mxPoint x="280" y="70" as="sourcePoint" />
            <mxPoint x="380" y="70" as="targetPoint" />
          </mxGeometry>
        </mxCell>
        <mxCell id="sT8FcXk763uW2nM7d11g-175" value="" style="group" vertex="1" connectable="0" parent="1">
          <mxGeometry x="380" y="170" width="120" height="30" as="geometry" />
        </mxCell>
        <mxCell id="sT8FcXk763uW2nM7d11g-176" value="D2車次表" style="rounded=0;whiteSpace=wrap;html=1;" vertex="1" parent="sT8FcXk763uW2nM7d11g-175">
          <mxGeometry width="120" height="30" as="geometry" />
        </mxCell>
        <mxCell id="sT8FcXk763uW2nM7d11g-177" value="" style="endArrow=none;html=1;rounded=0;" edge="1" parent="sT8FcXk763uW2nM7d11g-175">
          <mxGeometry width="50" height="50" relative="1" as="geometry">
            <mxPoint x="10" y="30" as="sourcePoint" />
            <mxPoint x="10" as="targetPoint" />
          </mxGeometry>
        </mxCell>
        <mxCell id="sT8FcXk763uW2nM7d11g-178" value="" style="endArrow=classic;startArrow=classic;html=1;rounded=0;" edge="1" parent="1">
          <mxGeometry width="50" height="50" relative="1" as="geometry">
            <mxPoint x="500" y="180" as="sourcePoint" />
            <mxPoint x="570" y="180" as="targetPoint" />
          </mxGeometry>
        </mxCell>
        <mxCell id="sT8FcXk763uW2nM7d11g-179" value="" style="endArrow=classic;startArrow=classic;html=1;rounded=0;" edge="1" parent="1">
          <mxGeometry width="50" height="50" relative="1" as="geometry">
            <mxPoint x="280" y="180" as="sourcePoint" />
            <mxPoint x="380" y="180" as="targetPoint" />
          </mxGeometry>
        </mxCell>
        <mxCell id="sT8FcXk763uW2nM7d11g-180" value="" style="group" vertex="1" connectable="0" parent="1">
          <mxGeometry x="380" y="280" width="120" height="30" as="geometry" />
        </mxCell>
        <mxCell id="sT8FcXk763uW2nM7d11g-181" value="D3訂購表" style="rounded=0;whiteSpace=wrap;html=1;" vertex="1" parent="sT8FcXk763uW2nM7d11g-180">
          <mxGeometry width="120" height="30" as="geometry" />
        </mxCell>
        <mxCell id="sT8FcXk763uW2nM7d11g-182" value="" style="endArrow=none;html=1;rounded=0;" edge="1" parent="sT8FcXk763uW2nM7d11g-180">
          <mxGeometry width="50" height="50" relative="1" as="geometry">
            <mxPoint x="10" y="30" as="sourcePoint" />
            <mxPoint x="10" as="targetPoint" />
          </mxGeometry>
        </mxCell>
        <mxCell id="sT8FcXk763uW2nM7d11g-183" value="" style="endArrow=classic;startArrow=classic;html=1;rounded=0;" edge="1" parent="1">
          <mxGeometry width="50" height="50" relative="1" as="geometry">
            <mxPoint x="500" y="290" as="sourcePoint" />
            <mxPoint x="570" y="290" as="targetPoint" />
          </mxGeometry>
        </mxCell>
        <mxCell id="sT8FcXk763uW2nM7d11g-184" value="" style="endArrow=classic;startArrow=classic;html=1;rounded=0;" edge="1" parent="1">
          <mxGeometry width="50" height="50" relative="1" as="geometry">
            <mxPoint x="280" y="290" as="sourcePoint" />
            <mxPoint x="380" y="290" as="targetPoint" />
          </mxGeometry>
        </mxCell>
        <mxCell id="sT8FcXk763uW2nM7d11g-185" value="" style="group" vertex="1" connectable="0" parent="1">
          <mxGeometry x="380" y="390" width="120" height="30" as="geometry" />
        </mxCell>
        <mxCell id="sT8FcXk763uW2nM7d11g-186" value="D4改簽表" style="rounded=0;whiteSpace=wrap;html=1;" vertex="1" parent="sT8FcXk763uW2nM7d11g-185">
          <mxGeometry width="120" height="30" as="geometry" />
        </mxCell>
        <mxCell id="sT8FcXk763uW2nM7d11g-187" value="" style="endArrow=none;html=1;rounded=0;" edge="1" parent="sT8FcXk763uW2nM7d11g-185">
          <mxGeometry width="50" height="50" relative="1" as="geometry">
            <mxPoint x="10" y="30" as="sourcePoint" />
            <mxPoint x="10" as="targetPoint" />
          </mxGeometry>
        </mxCell>
        <mxCell id="sT8FcXk763uW2nM7d11g-188" value="" style="endArrow=classic;startArrow=classic;html=1;rounded=0;" edge="1" parent="1">
          <mxGeometry width="50" height="50" relative="1" as="geometry">
            <mxPoint x="500" y="400" as="sourcePoint" />
            <mxPoint x="570" y="400" as="targetPoint" />
          </mxGeometry>
        </mxCell>
        <mxCell id="sT8FcXk763uW2nM7d11g-189" value="" style="endArrow=classic;startArrow=classic;html=1;rounded=0;" edge="1" parent="1">
          <mxGeometry width="50" height="50" relative="1" as="geometry">
            <mxPoint x="280" y="400" as="sourcePoint" />
            <mxPoint x="380" y="400" as="targetPoint" />
          </mxGeometry>
        </mxCell>
        <mxCell id="sT8FcXk763uW2nM7d11g-190" value="" style="group" vertex="1" connectable="0" parent="1">
          <mxGeometry x="380" y="500" width="120" height="30" as="geometry" />
        </mxCell>
        <mxCell id="sT8FcXk763uW2nM7d11g-191" value="D5退票表" style="rounded=0;whiteSpace=wrap;html=1;" vertex="1" parent="sT8FcXk763uW2nM7d11g-190">
          <mxGeometry width="120" height="30" as="geometry" />
        </mxCell>
        <mxCell id="sT8FcXk763uW2nM7d11g-192" value="" style="endArrow=none;html=1;rounded=0;" edge="1" parent="sT8FcXk763uW2nM7d11g-190">
          <mxGeometry width="50" height="50" relative="1" as="geometry">
            <mxPoint x="10" y="30" as="sourcePoint" />
            <mxPoint x="10" as="targetPoint" />
          </mxGeometry>
        </mxCell>
        <mxCell id="sT8FcXk763uW2nM7d11g-193" value="" style="endArrow=classic;startArrow=classic;html=1;rounded=0;" edge="1" parent="1">
          <mxGeometry width="50" height="50" relative="1" as="geometry">
            <mxPoint x="500" y="510" as="sourcePoint" />
            <mxPoint x="570" y="510" as="targetPoint" />
          </mxGeometry>
        </mxCell>
        <mxCell id="sT8FcXk763uW2nM7d11g-194" value="" style="endArrow=classic;startArrow=classic;html=1;rounded=0;" edge="1" parent="1">
          <mxGeometry width="50" height="50" relative="1" as="geometry">
            <mxPoint x="280" y="510" as="sourcePoint" />
            <mxPoint x="380" y="510" as="targetPoint" />
          </mxGeometry>
        </mxCell>
        <mxCell id="sT8FcXk763uW2nM7d11g-196" value="" style="endArrow=classic;html=1;rounded=0;" edge="1" parent="1">
          <mxGeometry width="50" height="50" relative="1" as="geometry">
            <mxPoint x="330" y="190" as="sourcePoint" />
            <mxPoint x="280" y="190" as="targetPoint" />
          </mxGeometry>
        </mxCell>
        <mxCell id="sT8FcXk763uW2nM7d11g-197" value="" style="endArrow=classic;html=1;rounded=0;" edge="1" parent="1">
          <mxGeometry width="50" height="50" relative="1" as="geometry">
            <mxPoint x="330" y="279" as="sourcePoint" />
            <mxPoint x="280" y="279" as="targetPoint" />
          </mxGeometry>
        </mxCell>
        <mxCell id="sT8FcXk763uW2nM7d11g-198" value="" style="endArrow=none;html=1;rounded=0;" edge="1" parent="1">
          <mxGeometry width="50" height="50" relative="1" as="geometry">
            <mxPoint x="330" y="200" as="sourcePoint" />
            <mxPoint x="330" y="190" as="targetPoint" />
          </mxGeometry>
        </mxCell>
        <mxCell id="sT8FcXk763uW2nM7d11g-201" value="" style="endArrow=none;html=1;rounded=0;" edge="1" parent="1">
          <mxGeometry width="50" height="50" relative="1" as="geometry">
            <mxPoint x="330" y="270" as="sourcePoint" />
            <mxPoint x="330" y="280" as="targetPoint" />
          </mxGeometry>
        </mxCell>
        <mxCell id="sT8FcXk763uW2nM7d11g-202" value="&lt;font style=&quot;font-size: 12px;&quot;&gt;F1輸入訊息&lt;/font&gt;" style="text;html=1;align=center;verticalAlign=middle;resizable=0;points=[];autosize=1;strokeColor=none;fillColor=none;" vertex="1" parent="1">
          <mxGeometry x="285" y="45" width="90" height="30" as="geometry" />
        </mxCell>
        <mxCell id="sT8FcXk763uW2nM7d11g-203" value="&lt;span style=&quot;color: rgb(0, 0, 0); font-family: Helvetica; font-style: normal; font-variant-ligatures: normal; font-variant-caps: normal; font-weight: 400; letter-spacing: normal; orphans: 2; text-indent: 0px; text-transform: none; widows: 2; word-spacing: 0px; -webkit-text-stroke-width: 0px; background-color: rgb(251, 251, 251); text-decoration-thickness: initial; text-decoration-style: initial; text-decoration-color: initial; float: none; display: inline !important;&quot;&gt;&lt;font style=&quot;font-size: 12px;&quot;&gt;F2輸入訊息&lt;/font&gt;&lt;/span&gt;" style="text;whiteSpace=wrap;html=1;align=center;" vertex="1" parent="1">
          <mxGeometry x="280" y="155" width="100" height="30" as="geometry" />
        </mxCell>
        <mxCell id="sT8FcXk763uW2nM7d11g-205" value="&lt;font style=&quot;font-size: 12px;&quot;&gt;F3輸入訊息&lt;/font&gt;" style="text;html=1;align=center;verticalAlign=middle;resizable=0;points=[];autosize=1;strokeColor=none;fillColor=none;" vertex="1" parent="1">
          <mxGeometry x="285" y="290" width="90" height="30" as="geometry" />
        </mxCell>
        <mxCell id="sT8FcXk763uW2nM7d11g-207" value="&lt;font style=&quot;font-size: 12px;&quot;&gt;F4輸入訊息&lt;/font&gt;" style="text;html=1;align=center;verticalAlign=middle;resizable=0;points=[];autosize=1;strokeColor=none;fillColor=none;" vertex="1" parent="1">
          <mxGeometry x="285" y="375" width="90" height="30" as="geometry" />
        </mxCell>
        <mxCell id="sT8FcXk763uW2nM7d11g-208" value="&lt;font style=&quot;font-size: 12px;&quot;&gt;F5輸入訊息&lt;/font&gt;" style="text;html=1;align=center;verticalAlign=middle;resizable=0;points=[];autosize=1;strokeColor=none;fillColor=none;" vertex="1" parent="1">
          <mxGeometry x="280" y="485" width="90" height="30" as="geometry" />
        </mxCell>
        <mxCell id="sT8FcXk763uW2nM7d11g-209" value="&lt;font style=&quot;font-size: 12px;&quot;&gt;F1輸出訊息&lt;/font&gt;" style="text;html=1;align=center;verticalAlign=middle;resizable=0;points=[];autosize=1;strokeColor=none;fillColor=none;" vertex="1" parent="1">
          <mxGeometry x="490" y="40" width="90" height="30" as="geometry" />
        </mxCell>
        <mxCell id="sT8FcXk763uW2nM7d11g-211" value="&lt;font style=&quot;font-size: 12px;&quot;&gt;F2輸出訊息&lt;/font&gt;" style="text;html=1;align=center;verticalAlign=middle;resizable=0;points=[];autosize=1;strokeColor=none;fillColor=none;" vertex="1" parent="1">
          <mxGeometry x="490" y="150" width="90" height="30" as="geometry" />
        </mxCell>
        <mxCell id="sT8FcXk763uW2nM7d11g-213" value="&lt;font style=&quot;font-size: 12px;&quot;&gt;F3輸出訊息&lt;/font&gt;" style="text;html=1;align=center;verticalAlign=middle;resizable=0;points=[];autosize=1;strokeColor=none;fillColor=none;" vertex="1" parent="1">
          <mxGeometry x="490" y="260" width="90" height="30" as="geometry" />
        </mxCell>
        <mxCell id="sT8FcXk763uW2nM7d11g-214" value="&lt;font style=&quot;font-size: 12px;&quot;&gt;F4輸出訊息&lt;/font&gt;" style="text;html=1;align=center;verticalAlign=middle;resizable=0;points=[];autosize=1;strokeColor=none;fillColor=none;" vertex="1" parent="1">
          <mxGeometry x="490" y="370" width="90" height="30" as="geometry" />
        </mxCell>
        <mxCell id="sT8FcXk763uW2nM7d11g-215" value="&lt;font style=&quot;font-size: 12px;&quot;&gt;F5輸出訊息&lt;/font&gt;" style="text;html=1;align=center;verticalAlign=middle;resizable=0;points=[];autosize=1;strokeColor=none;fillColor=none;" vertex="1" parent="1">
          <mxGeometry x="490" y="480" width="90" height="30" as="geometry" />
        </mxCell>
      </root>
    </mxGraphModel>
  </diagram>
</mxfile>
